<svg width="24" height="24" viewBox="0 0 24 24" fill="none" xmlns="http://www.w3.org/2000/svg">
<path fill-rule="evenodd" clip-rule="evenodd" d="M-7.3982e-05 12C-7.3982e-05 5.37258 5.37251 0 11.9999 0C18.6273 0 23.9999 5.37258 23.9999 12C23.9999 18.6274 18.6273 24 11.9999 24C5.37251 24 -7.3982e-05 18.6274 -7.3982e-05 12ZM17.6323 9.42526C18.0513 8.99234 18.0401 8.30171 17.6072 7.88269C17.1742 7.46366 16.4836 7.47492 16.0646 7.90784L10.3967 13.7636L7.93636 11.2147C7.51793 10.7812 6.82731 10.769 6.39383 11.1874C5.96034 11.6059 5.94814 12.2965 6.36658 12.73L9.61079 16.0909C9.81619 16.3036 10.0992 16.4239 10.3949 16.4241C10.6907 16.4243 10.9738 16.3044 11.1795 16.0919L17.6323 9.42526Z" fill="#007AFF"/>
</svg>
