<svg width="24" height="24" viewBox="0 0 24 24" fill="none" xmlns="http://www.w3.org/2000/svg">
<path d="M12.7537 4.80739C15.0682 2.39757 18.863 2.39755 21.1775 4.80739L21.1795 4.80935C23.5245 7.2677 23.1325 10.9528 21.2371 13.4383L21.2351 13.4402L20.8748 13.9011C19.0538 16.1777 17.0146 18.0224 15.4021 19.3172L14.78 19.8064C14.1822 20.2669 13.6635 20.638 13.2654 20.9129C13 21.0961 12.7876 21.2373 12.6404 21.3328L12.4705 21.4422L12.4236 21.4705L12.4109 21.4783L12.408 21.4802L12.406 21.4812C12.1853 21.6164 11.9145 21.6358 11.6795 21.5379L11.5759 21.4861L11.5623 21.4773L11.5144 21.449L11.3377 21.3396L10.6902 20.9197C10.2797 20.6446 9.74747 20.2723 9.13747 19.8113L8.5027 19.3201C6.86445 18.0239 4.81672 16.1738 3.07204 13.8865L2.72731 13.4226L2.72634 13.4217C0.9868 11.0127 0.470505 7.49161 2.58474 5.04079L2.79763 4.80739C5.11214 2.39754 8.90791 2.39754 11.2224 4.80739V4.80837L11.9881 5.6072L12.7537 4.80739ZM19.7263 5.90212C18.1112 4.38313 15.6076 4.43434 14.0515 6.05446L13.2879 6.85134C12.9484 7.20585 12.4789 7.40691 11.9881 7.407C11.4971 7.407 11.0268 7.20593 10.6873 6.85134L9.9236 6.05349C8.31741 4.38156 5.70249 4.38228 4.09645 6.05446C2.55112 7.66345 2.69693 10.3049 4.18435 12.366L4.50466 12.7967C6.12718 14.9234 8.05142 16.6687 9.61892 17.909C10.4521 18.5682 11.1784 19.0796 11.6931 19.4246C11.7964 19.4938 11.893 19.5536 11.9783 19.6091C12.0579 19.5556 12.1475 19.4983 12.2429 19.4324C12.7435 19.0868 13.4521 18.5737 14.2752 17.9129C15.925 16.5881 18.0133 14.6836 19.8054 12.3465C21.3283 10.3496 21.4405 7.6938 19.8797 6.05446L19.7263 5.90212Z" fill="black"/>
</svg>
